<?xml version="1.0" standalone="no"?>
<!DOCTYPE svg PUBLIC "-//W3C//DTD SVG 20010904//EN"
 "http://www.w3.org/TR/2001/REC-SVG-20010904/DTD/svg10.dtd">
<svg version="1.0" xmlns="http://www.w3.org/2000/svg"
 width="348.000000pt" height="348.000000pt" viewBox="0 0 348.000000 348.000000"
 preserveAspectRatio="xMidYMid meet">
<metadata>
Created by potrace 1.11, written by Peter Selinger 2001-2013
</metadata>
<g transform="translate(0.000000,348.000000) scale(0.100000,-0.100000)"
fill="#000000" stroke="none">
<path d="M1377 2713 c-49 -71 -178 -258 -288 -418 -110 -159 -230 -333 -265
-385 -36 -52 -89 -129 -117 -170 -191 -275 -277 -403 -277 -409 0 -8 -1 -7
140 -126 132 -112 134 -113 136 -133 2 -9 4 -52 5 -94 l2 -78 131 0 c72 -1
320 -3 551 -5 231 -3 646 -7 923 -9 l502 -5 0 94 c0 85 2 94 23 108 12 8 32
23 43 33 12 11 65 54 118 97 l96 78 -57 82 c-31 45 -71 101 -88 124 -16 23
-83 117 -148 210 -65 92 -182 258 -259 368 -78 110 -162 230 -187 266 -25 36
-88 126 -140 200 -52 74 -111 159 -133 189 -21 30 -49 68 -62 85 l-23 29 -63
-59 c-34 -33 -68 -64 -75 -70 -6 -5 -37 -34 -68 -64 l-56 -54 -43 38 c-24 21
-83 75 -131 119 -49 45 -92 82 -96 84 -3 1 -46 -55 -94 -125z m321 -99 c27
-23 28 -36 2 -52 -11 -7 -20 -17 -20 -22 0 -18 27 -10 43 13 l15 22 21 -22
c22 -23 51 -31 51 -14 0 5 -14 18 -30 28 l-30 19 106 100 c59 54 116 107 127
117 22 19 20 21 163 -183 25 -36 124 -176 220 -312 96 -136 174 -251 174 -255
0 -5 -38 -46 -85 -93 -82 -82 -110 -124 -65 -100 11 6 20 15 20 21 0 5 33 43
73 83 l72 74 117 -166 c65 -92 159 -225 209 -297 50 -71 115 -164 144 -205
l53 -76 -85 -69 c-47 -39 -109 -89 -137 -113 l-52 -43 1 -84 c0 -52 -3 -85
-10 -86 -5 0 -161 0 -345 1 -184 2 -417 3 -517 3 l-183 1 -1 51 c0 27 -2 58
-4 69 -2 10 0 29 5 41 6 16 5 27 -4 34 -10 9 -15 8 -20 -4 -3 -8 -3 -21 -1
-28 3 -6 6 -46 8 -87 l3 -76 -100 2 c-56 1 -282 3 -503 5 -356 3 -403 5 -404
18 -7 165 -7 165 -42 196 -18 17 -57 50 -87 75 -105 88 -145 123 -148 131 -2
5 41 73 96 151 121 175 315 455 362 526 19 28 40 50 47 47 17 -6 186 -136 199
-154 7 -8 18 -12 29 -8 14 6 15 10 5 22 -7 8 -16 13 -20 10 -5 -3 -21 5 -37
18 -15 13 -59 48 -98 77 -38 29 -71 54 -73 56 -2 1 23 40 54 85 97 141 249
361 355 514 l101 146 101 -94 c56 -51 112 -102 125 -113z"/>
<path d="M1540 2421 c0 -6 9 -12 20 -12 11 -1 25 -2 32 -3 18 -2 24 -48 22
-181 -2 -193 -3 -205 -16 -209 -7 -3 -26 -8 -43 -12 l-30 -7 30 -6 c65 -13
294 -4 340 13 90 35 143 128 131 233 -7 69 -43 125 -103 160 -46 27 -53 28
-215 31 -119 3 -168 1 -168 -7z m326 -56 c48 -28 74 -74 79 -143 9 -129 -92
-225 -212 -200 -50 11 -46 -9 -45 217 1 107 4 146 14 153 22 15 120 -1 164
-27z m92 -60 c-3 -3 -9 2 -12 12 -6 14 -5 15 5 6 7 -7 10 -15 7 -18z m21 -100
c0 -27 -3 -55 -7 -61 -4 -7 -7 23 -7 67 0 43 3 71 7 61 4 -9 7 -39 7 -67z"/>
<path d="M2217 1629 c-210 -49 -244 -323 -50 -410 96 -44 217 -26 283 42 106
109 79 280 -55 347 -48 24 -126 33 -178 21z m117 -29 c95 -36 140 -184 87
-287 -71 -140 -260 -115 -302 39 -41 154 83 298 215 248z m-218 -52 c-57 -76
-58 -182 -2 -263 15 -22 16 -26 4 -17 -20 16 -57 90 -63 125 -7 34 19 112 50
152 14 19 28 35 31 35 3 0 -6 -15 -20 -32z m350 -67 c23 -90 5 -170 -52 -221
-23 -21 -23 -19 7 19 33 41 34 46 34 130 0 72 -4 92 -23 126 -23 39 -23 40 -2
19 13 -12 28 -45 36 -73z m-305 -238 c13 -16 12 -17 -3 -4 -17 13 -22 21 -14
21 2 0 10 -8 17 -17z"/>
<path d="M1054 1618 c30 -11 74 -96 166 -320 24 -60 47 -108 50 -108 3 0 23
44 44 98 22 53 62 148 89 210 44 100 53 113 81 121 24 7 9 9 -64 9 -68 0 -84
-2 -57 -8 20 -4 40 -10 44 -13 8 -8 -28 -107 -79 -217 -45 -98 -36 -103 -107
63 -71 164 -70 154 -19 165 37 8 27 10 -67 10 -87 0 -104 -2 -81 -10z m135
-180 c86 -202 88 -206 74 -193 -6 6 -39 75 -73 155 -34 80 -69 160 -76 178 -8
17 -11 32 -6 32 4 0 41 -78 81 -172z"/>
</g>
</svg>
